<?xml version="1.0" standalone="no"?>
<!DOCTYPE svg PUBLIC "-//W3C//DTD SVG 1.1//EN" "https://www.w3.org/Graphics/SVG/1.1/DTD/svg11.dtd">
<svg width="800" height="600" version="1.1" xmlns="http://www.w3.org/2000/svg">
	<ellipse stroke="black" stroke-width="1" fill="none" cx="311.5" cy="244.5" rx="30" ry="30"/>
	<text x="293.5" y="250.5" font-family="Times New Roman" font-size="20">Idle</text>
	<ellipse stroke="black" stroke-width="1" fill="none" cx="441.5" cy="122.5" rx="30" ry="30"/>
	<text x="422.5" y="128.5" font-family="Times New Roman" font-size="20">Run</text>
	<ellipse stroke="black" stroke-width="1" fill="none" cx="611.5" cy="141.5" rx="30" ry="30"/>
	<text x="577.5" y="147.5" font-family="Times New Roman" font-size="20">Paused</text>
	<ellipse stroke="black" stroke-width="1" fill="none" cx="317.5" cy="399.5" rx="30" ry="30"/>
	<text x="293.5" y="405.5" font-family="Times New Roman" font-size="20">View</text>
	<path stroke="black" stroke-width="1" fill="none" d="M 297.373,377.394 A 103.74,103.74 0 0 1 293.142,268.095"/>
	<polygon fill="black" stroke-width="1" points="297.373,377.394 297.04,367.966 288.752,373.563"/>
	<text x="232.5" y="329.5" font-family="Times New Roman" font-size="20">load</text>
	<path stroke="black" stroke-width="1" fill="none" d="M 430.223,150.263 A 181.286,181.286 0 0 1 339.922,235.007"/>
	<polygon fill="black" stroke-width="1" points="430.223,150.263 422.149,155.143 431.071,159.659"/>
	<text x="397.5" y="221.5" font-family="Times New Roman" font-size="20">start</text>
	<path stroke="black" stroke-width="1" fill="none" d="M 321.028,216.099 A 161.038,161.038 0 0 1 412.552,130.207"/>
	<polygon fill="black" stroke-width="1" points="321.028,216.099 328.839,210.808 319.695,206.76"/>
	<text x="313.5" y="155.5" font-family="Times New Roman" font-size="20">stop</text>
	<path stroke="black" stroke-width="1" fill="none" d="M 584.676,154.797 A 135.676,135.676 0 0 1 464.727,141.391"/>
	<polygon fill="black" stroke-width="1" points="584.676,154.797 575.447,152.84 578.873,162.235"/>
	<text x="487.5" y="186.5" font-family="Times New Roman" font-size="20">pause</text>
	<path stroke="black" stroke-width="1" fill="none" d="M 468.166,108.894 A 133.483,133.483 0 0 1 588.495,122.343"/>
	<polygon fill="black" stroke-width="1" points="468.166,108.894 477.414,110.761 473.896,101.4"/>
	<text x="503.5" y="88.5" font-family="Times New Roman" font-size="20">resume</text>
	<path stroke="black" stroke-width="1" fill="none" d="M 596.697,167.568 A 223.069,223.069 0 0 1 339.193,255.978"/>
	<polygon fill="black" stroke-width="1" points="339.193,255.978 345.173,263.274 348.372,253.8"/>
	<text x="485.5" y="277.5" font-family="Times New Roman" font-size="20">stop</text>
	<path stroke="black" stroke-width="1" fill="none" d="M 328.504,269.124 A 122.06,122.06 0 0 1 332.549,373.635"/>
	<polygon fill="black" stroke-width="1" points="328.504,269.124 327.776,278.53 336.64,273.9"/>
	<text x="347.5" y="326.5" font-family="Times New Roman" font-size="20">close</text>
</svg>

